<svg width="33" height="33" viewBox="0 0 33 33" fill="none" xmlns="http://www.w3.org/2000/svg">
<rect width="33" height="33" fill="#303145"/>
<path d="M9.80421 18.8743C9.77696 18.8146 9.74688 18.7766 9.74322 18.7361C9.70256 18.3021 9.66719 17.8673 9.62449 17.4338C9.61474 17.3336 9.6497 17.3143 9.74037 17.3148C11.4312 17.3169 13.122 17.3169 14.8126 17.3148H17.7807C17.9559 17.3148 17.973 17.334 17.9299 17.5029C17.8526 17.8048 17.7746 18.1066 17.6928 18.4068C17.6554 18.5447 17.7022 18.6682 17.7408 18.7937C17.8669 19.1981 17.994 19.6022 18.1222 20.0061C18.21 20.2813 18.3035 20.5549 18.3905 20.8306C18.4914 21.1492 18.5865 21.4699 18.6869 21.7889C18.8358 22.2601 18.9878 22.7297 19.1362 23.2017C19.2395 23.5289 19.3395 23.8585 19.4416 24.1861C19.5083 24.3964 19.5806 24.6046 19.6599 24.843C19.7071 24.6909 19.7485 24.562 19.7876 24.432C19.9185 23.9935 20.049 23.5549 20.1791 23.1162C20.2791 22.7751 20.3743 22.4319 20.4755 22.0908C20.6687 21.4409 20.8654 20.7922 21.0586 20.1423C21.1582 19.8056 21.2517 19.4674 21.3513 19.1308C21.3977 18.9737 21.466 18.8216 21.4953 18.662C21.5093 18.5599 21.497 18.4558 21.4595 18.3598C21.3542 18.0735 21.235 17.7925 21.1188 17.5107C21.0606 17.3687 21.0927 17.3148 21.2407 17.3148C21.81 17.3148 22.3792 17.3148 22.9484 17.3148C22.9789 17.3124 23.0095 17.3142 23.0395 17.3201C23.1074 17.3397 23.1163 17.3982 23.0614 17.4645C22.8968 17.6628 22.7309 17.86 22.5662 18.0583C22.4674 18.177 22.354 18.2874 22.2755 18.4187C22.2042 18.5479 22.1485 18.6852 22.1096 18.8277C21.9876 19.2187 21.8746 19.6118 21.7604 20.0052C21.6868 20.2592 21.6201 20.5161 21.5457 20.7701C21.4599 21.0629 21.3668 21.3533 21.2802 21.6458C21.1826 21.973 21.0903 22.3039 20.9935 22.6327C20.9049 22.9342 20.8118 23.2344 20.7235 23.5362C20.6504 23.787 20.5841 24.0397 20.5109 24.29C20.4251 24.5833 20.334 24.8749 20.2478 25.1678C20.1393 25.5359 20.0332 25.904 19.9266 26.2721C19.9265 26.2859 19.9281 26.2996 19.9315 26.313H20.0401C21.1314 26.313 22.2224 26.313 23.3131 26.313C23.3867 26.313 23.4351 26.3003 23.4705 26.2214C23.5469 26.0512 23.6416 25.8893 23.7246 25.7216C23.7404 25.6843 23.7478 25.6439 23.7461 25.6034C23.7461 23.272 23.7449 20.9406 23.7425 18.6093C23.7425 18.4935 23.688 18.3757 23.6473 18.2628C23.5502 17.9929 23.444 17.7258 23.3456 17.4567C23.3095 17.3589 23.3509 17.3119 23.4709 17.3115C24.1417 17.3115 24.8126 17.3115 25.4835 17.3115H27.327C27.3258 17.2794 27.3214 17.2474 27.3139 17.2162C27.2103 16.9258 27.098 16.6387 27.0041 16.3454C26.9683 16.2342 26.9045 16.2321 26.8155 16.2321C19.795 16.2321 12.7746 16.2321 5.75418 16.2321C5.10363 16.2321 4.45309 16.2321 3.80255 16.2321C3.63992 16.2321 3.59926 16.1699 3.66024 16.0145C3.78873 15.6835 3.9145 15.3497 4.03756 15.0133C4.04488 14.9834 4.04708 14.9526 4.04406 14.922C4.04406 12.5978 4.04271 10.2732 4.04 7.9484C4.04 7.83756 3.98226 7.72468 3.94323 7.61588C3.84768 7.34675 3.74278 7.08089 3.64886 6.81094C3.60292 6.68006 3.64886 6.62648 3.78791 6.62648C4.60109 6.62648 5.41427 6.61789 6.22745 6.62893C7.22725 6.64243 8.03676 7.05472 8.65519 7.84574C8.99347 8.27848 9.22441 8.7652 9.40006 9.28587C9.70866 10.2045 9.76883 11.1485 9.70174 12.1052C9.67214 12.5427 9.59386 12.9756 9.46836 13.3956C9.24637 14.1318 8.91784 14.8124 8.35919 15.3589C8.26649 15.4497 8.16687 15.5331 8.05709 15.6317H12.4759C12.4401 15.509 12.4068 15.3863 12.369 15.2668C12.3076 15.0726 12.2413 14.8799 12.1795 14.6856C12.0791 14.3682 11.9807 14.0504 11.8807 13.733C11.7692 13.3808 11.6574 13.0287 11.5452 12.677C11.4696 12.4398 11.3919 12.2029 11.3171 11.9653C11.2423 11.7277 11.1724 11.4941 11.098 11.2589C10.974 10.8667 10.8471 10.4749 10.7231 10.0826C10.6088 9.72106 10.4983 9.35827 10.384 8.99711C10.2986 8.72593 10.1933 8.46008 10.1262 8.18481C10.0286 7.78357 9.73915 7.50708 9.52447 7.18192C9.43909 7.05226 9.34273 6.93038 9.25775 6.80113C9.24531 6.78317 9.23675 6.7628 9.23262 6.74131C9.22849 6.71982 9.22888 6.69771 9.23376 6.67638C9.24596 6.64898 9.30573 6.62975 9.34435 6.62934C9.9949 6.62689 10.6454 6.62934 11.296 6.62934C11.4554 6.62934 11.4464 6.72055 11.418 6.84898C11.3712 7.04817 11.3163 7.24491 11.2635 7.44205C11.2309 7.56475 11.1951 7.68746 11.1622 7.81016C11.1525 7.83511 11.1496 7.86221 11.1537 7.88869C11.2403 8.15864 11.3326 8.42654 11.4184 8.69689C11.5168 9.00529 11.6091 9.31532 11.7062 9.62412C11.8323 10.025 11.962 10.4246 12.0876 10.825C12.1762 11.1064 12.2584 11.3898 12.3474 11.6712C12.5101 12.1854 12.6759 12.6987 12.8394 13.2128C12.9288 13.4934 13.015 13.7752 13.1041 14.0558C13.1184 14.0886 13.1354 14.1202 13.1549 14.1502C13.2049 13.9866 13.2517 13.8435 13.294 13.6979C13.3675 13.4467 13.4367 13.1944 13.5107 12.9432C13.5956 12.6545 13.6831 12.3661 13.7697 12.0774C13.8738 11.7309 13.9795 11.3849 14.0815 11.0377C14.1551 10.7865 14.2222 10.5338 14.2966 10.2826C14.3958 9.94847 14.4999 9.61553 14.6007 9.28137C14.7109 8.91081 14.8178 8.53902 14.926 8.16763C14.936 8.12484 14.9496 8.08298 14.9667 8.04248C15.0703 7.8347 14.9305 7.67069 14.8683 7.49563C14.7817 7.25309 14.6788 7.01668 14.5837 6.77659C14.5536 6.69928 14.5902 6.64325 14.6743 6.6318C14.6979 6.63036 14.7215 6.63036 14.7451 6.6318H16.4121C16.4459 6.62961 16.4798 6.63222 16.5129 6.63957C16.5877 6.66206 16.5971 6.72587 16.5381 6.79827C16.2808 7.11239 16.0177 7.42242 15.768 7.74308C15.6989 7.83225 15.6619 7.94963 15.6233 8.05925C15.5745 8.19831 15.5375 8.34228 15.4985 8.48462C15.4921 8.5252 15.489 8.56623 15.4891 8.60732C15.5883 8.53779 15.6692 8.48216 15.7493 8.42531L18.4564 6.50051C18.6747 6.34181 18.8915 6.18884 19.107 6.03137C19.1298 6.01115 19.1591 6 19.1895 6C19.2199 6 19.2492 6.01115 19.272 6.03137C19.9261 6.49901 20.5808 6.96596 21.2363 7.43223L23.1667 8.80774C23.3233 8.91899 23.4798 9.03106 23.6372 9.1419C23.6656 9.16194 23.6982 9.17626 23.749 9.20448V9.07441C23.749 8.7472 23.7408 8.41999 23.7522 8.09279C23.7587 7.91037 23.7116 7.74758 23.6477 7.58275C23.5447 7.31498 23.4443 7.04613 23.3465 6.77618C23.3168 6.69438 23.3582 6.63752 23.4457 6.62771C23.4694 6.62628 23.4931 6.62628 23.5168 6.62771C24.3166 6.62771 25.1163 6.62116 25.9157 6.62771C26.4886 6.63384 27.046 6.72383 27.5579 7.00727C28.0598 7.28106 28.4594 7.71177 28.6963 8.2343C28.8263 8.52187 28.9218 8.82392 28.981 9.13413C29.0666 9.55101 29.0876 9.97872 29.0432 10.4021C28.9509 11.3043 28.6199 12.1031 27.9189 12.7077C27.5644 13.0142 27.1305 13.2131 26.6679 13.2811C26.5483 13.2995 26.428 13.313 26.293 13.3302C26.4097 13.4054 26.5166 13.4778 26.6272 13.5441C26.9647 13.7486 27.2042 14.0443 27.3997 14.3797C27.6929 14.8861 27.8978 15.4321 28.0999 15.9797C28.2918 16.4988 28.4784 17.0207 28.6959 17.5287C28.8696 17.9487 29.1142 18.3353 29.4189 18.6714C29.4859 18.7438 29.5669 18.8027 29.6514 18.876C29.5902 18.898 29.5274 18.9154 29.4636 18.9279C28.9639 18.9831 28.5162 18.86 28.1536 18.5009C27.997 18.3459 27.8689 18.1626 27.7279 17.9904C27.7091 17.9612 27.6833 17.9372 27.6529 17.9207C27.6225 17.9041 27.5884 17.8955 27.5538 17.8956C26.6931 17.8988 25.8327 17.8976 24.972 17.8976C24.85 17.8976 24.835 17.9123 24.835 18.0309C24.835 19.2683 24.835 20.5056 24.835 21.7427C24.835 21.8339 24.8634 21.8576 24.9517 21.8572C25.5583 21.8536 26.1645 21.8507 26.7711 21.8572C27.2521 21.8617 27.5551 21.6028 27.7697 21.2028C27.8165 21.1157 27.8563 21.0249 27.9063 20.9214C28.1072 21.1668 28.2267 21.4278 28.1739 21.7358C28.1454 21.8994 28.0068 21.9873 27.8698 22.0609C27.8027 22.0969 27.7299 22.1231 27.651 22.1579C27.7303 22.1902 27.8051 22.2159 27.8754 22.2503C28.134 22.3775 28.2052 22.5084 28.1779 22.7959C28.1572 23.0164 28.0531 23.1972 27.9084 23.3788C27.858 23.2732 27.8177 23.1788 27.7693 23.0888C27.6148 22.8025 27.4066 22.5722 27.081 22.4843C26.9886 22.4627 26.894 22.4529 26.7992 22.4552C26.1893 22.4528 25.5794 22.4552 24.9696 22.4552C24.8423 22.4552 24.8366 22.4605 24.8366 22.5869V26.1862C24.8366 26.3138 24.839 26.3163 24.9696 26.3163C26.0299 26.3163 27.0905 26.3163 28.1511 26.3163C28.1791 26.3188 28.2074 26.3141 28.2331 26.3027C28.2588 26.2912 28.2813 26.2734 28.2983 26.2508C28.6322 25.8388 28.9692 25.4298 29.3091 25.0238C29.3414 24.9955 29.3779 24.9725 29.4172 24.9555C29.4282 24.9964 29.4579 25.0438 29.4481 25.0827C29.379 25.4361 29.3046 25.7882 29.2306 26.1408C29.1863 26.3498 29.1363 26.5576 29.0956 26.7678C29.068 26.9097 29.0737 26.911 28.9301 26.911H3.91192C3.85093 26.911 3.78995 26.911 3.72896 26.911C3.66797 26.911 3.62772 26.8762 3.64195 26.8157C3.66824 26.7047 3.7011 26.5955 3.74034 26.4885C3.83752 26.2214 3.94079 25.9568 4.03919 25.6905C4.04609 25.6606 4.04788 25.6298 4.04447 25.5993C4.04447 23.2783 4.04312 20.9571 4.04041 18.6359C4.04041 18.5238 3.98877 18.4093 3.94933 18.3001C3.85256 18.0318 3.74603 17.7684 3.64927 17.4984C3.60332 17.3708 3.64317 17.3188 3.77124 17.3188C4.70314 17.3188 5.63545 17.3017 6.56613 17.3311C7.30816 17.3548 7.98919 17.5806 8.52833 18.1332C8.79606 18.415 8.99618 18.7547 9.11341 19.1263C9.23262 19.4739 9.3011 19.837 9.31671 20.2044C9.32402 20.4114 9.35736 20.6192 9.34191 20.8245C9.32033 21.0868 9.28367 21.3476 9.23213 21.6057C9.14943 22.0367 8.97676 22.4452 8.72553 22.8041C8.41364 23.2709 7.96689 23.6302 7.44558 23.8336C6.99061 24.0131 6.52182 24.0205 6.05261 23.9775C5.72623 23.9454 5.41155 23.8382 5.13291 23.6642C5.13047 23.7146 5.12762 23.7501 5.12762 23.7869C5.12762 24.3461 5.13088 24.9052 5.12478 25.4639C5.12071 25.5939 5.15042 25.7228 5.21097 25.8377C5.2805 25.9674 5.34677 26.0995 5.41427 26.2316C5.42531 26.2593 5.44499 26.2827 5.47036 26.2982C5.49573 26.3137 5.52541 26.3204 5.55495 26.3175C7.14064 26.3153 8.72634 26.3153 10.312 26.3175C10.3966 26.3175 10.434 26.2795 10.4637 26.2161C10.5401 26.0615 10.6214 25.9089 10.693 25.7518C10.7212 25.6911 10.7366 25.625 10.7381 25.558C10.7406 24.1093 10.7381 22.6609 10.7442 21.2122C10.7439 20.9785 10.6979 20.7471 10.6088 20.5312C10.5088 20.2768 10.4148 20.0202 10.3267 19.7615C10.3173 19.7345 10.3629 19.6833 10.3909 19.651C10.4019 19.6388 10.4365 19.6465 10.46 19.6465H11.9746C12.1031 19.6465 12.1372 19.6936 12.0933 19.8179C11.975 20.1451 11.8518 20.4723 11.7331 20.7995C11.7135 20.8498 11.7028 20.9031 11.7013 20.957C11.7013 22.501 11.6969 24.045 11.7058 25.5891C11.7058 25.7081 11.7871 25.8283 11.838 25.9449C11.8807 26.0435 11.9355 26.1371 11.9823 26.2341C11.9912 26.2596 12.0082 26.2814 12.0307 26.2962C12.0532 26.311 12.0799 26.3179 12.1067 26.3159C12.554 26.3134 13.0012 26.3134 13.4485 26.3159C13.4747 26.3168 13.5007 26.3094 13.5225 26.2947C13.5444 26.28 13.5612 26.2588 13.5704 26.2341C13.657 26.0623 13.7436 25.8901 13.8262 25.7163C13.8435 25.6762 13.8521 25.6328 13.8514 25.5891C13.8514 23.0671 13.8523 20.5449 13.8542 18.0223C13.8542 17.9238 13.8246 17.8947 13.7266 17.8951C12.7101 17.8984 11.6936 17.8984 10.6772 17.8951C10.6409 17.8926 10.6046 17.8998 10.572 17.9161C10.5395 17.9325 10.5119 17.9573 10.4922 17.988C10.2986 18.2489 10.0994 18.5054 9.90179 18.7631C9.87942 18.7946 9.85178 18.8203 9.80421 18.8743ZM20.8785 15.6337C20.8976 15.6369 20.9168 15.6391 20.9362 15.6403C21.7425 15.6403 22.5487 15.6403 23.355 15.6378C23.3761 15.634 23.3961 15.6257 23.4138 15.6135C23.4315 15.6013 23.4463 15.5855 23.4575 15.5671C23.5153 15.4743 23.5665 15.3775 23.6107 15.2775C23.6713 15.1384 23.7534 15.0128 23.7522 14.8435C23.7445 13.6063 23.7482 12.3694 23.7482 11.1321C23.7482 10.7334 23.7482 10.3346 23.7457 9.93579C23.7454 9.91208 23.7404 9.88868 23.7308 9.86702C23.7212 9.84536 23.7073 9.8259 23.69 9.80981C23.5367 9.70388 23.3761 9.60899 23.2188 9.5096L20.9419 8.07561C20.3803 7.72113 19.8194 7.36665 19.2594 7.01218C19.2386 6.99566 19.2128 6.98691 19.1863 6.98744C19.1599 6.98796 19.1344 6.99772 19.1143 7.01504C18.9801 7.10461 18.8402 7.18683 18.7036 7.27354C17.6031 7.9724 16.5025 8.67058 15.4017 9.36808C15.2797 9.44498 15.1891 9.51983 15.15 9.67525C15.0525 10.0626 14.928 10.443 14.8154 10.8266C14.7308 11.1154 14.6499 11.4054 14.5637 11.6941C14.4775 11.9829 14.3836 12.2762 14.297 12.5682C14.236 12.7727 14.1836 12.9829 14.123 13.1891C14.0096 13.576 13.8937 13.9621 13.7782 14.3486C13.6888 14.6492 13.5973 14.9494 13.509 15.2505C13.4724 15.3732 13.442 15.5016 13.4066 15.6345H17.4839C17.481 15.6219 17.4839 15.6129 17.4782 15.61C17.4481 15.5842 17.418 15.5585 17.3863 15.5352C16.7398 15.0611 16.3576 14.4071 16.1258 13.6537C15.8848 12.8168 15.8729 11.9299 16.0913 11.0867C16.1912 10.701 16.3502 10.3333 16.5625 9.99673C17.1304 9.09418 17.9419 8.59887 18.9972 8.51079C19.3613 8.48424 19.7272 8.52585 20.0763 8.6335C20.5988 8.78572 21.0684 9.0823 21.4318 9.48956C22.0535 10.1796 22.3503 11.0078 22.4198 11.9199C22.4459 12.2565 22.4198 12.5997 22.3849 12.9367C22.356 13.1921 22.3044 13.4444 22.2308 13.6905C22.049 14.3253 21.7278 14.8799 21.2391 15.3266C21.1269 15.4329 21.0061 15.527 20.8785 15.6337ZM5.12722 15.5556C5.27806 15.5834 5.41833 15.6206 5.56105 15.6333C5.93443 15.6717 6.31166 15.6299 6.66778 15.5106C7.1687 15.3368 7.54845 15.0055 7.83103 14.5568C8.12703 14.086 8.28844 13.5641 8.38399 13.0234C8.44509 12.6718 8.48393 12.3166 8.50028 11.96C8.53199 11.2929 8.51613 10.6266 8.39985 9.96524C8.34051 9.60035 8.24643 9.24204 8.1189 8.89527C7.96439 8.48953 7.75297 8.12346 7.44396 7.81957C7.07803 7.46168 6.64054 7.25268 6.13271 7.22486C5.8481 7.20932 5.56023 7.24041 5.2744 7.2584C5.12681 7.26781 5.12722 7.27599 5.12722 7.42487V15.5556ZM18.9821 26.3163C18.9843 26.3028 18.985 26.289 18.9842 26.2754C18.787 25.6484 18.591 25.0213 18.3914 24.3939C18.2381 23.9125 18.0791 23.4336 17.9242 22.9526C17.6968 22.2453 17.4704 21.5375 17.2452 20.8294C17.101 20.3754 16.9577 19.9211 16.8154 19.4666C16.7166 19.1508 16.6199 18.8342 16.5215 18.5181C16.4678 18.3463 16.4145 18.1741 16.3568 18.0035C16.3496 17.9696 16.33 17.9396 16.3018 17.9196C16.2736 17.8996 16.2389 17.891 16.2047 17.8956C15.8355 17.9037 15.4664 17.8988 15.0972 17.8988C14.9382 17.8988 14.9378 17.8988 14.9378 18.0559C14.9378 20.5372 14.9378 23.0186 14.9378 25.4999C14.934 25.6051 14.9585 25.7093 15.0085 25.8017C15.0858 25.9392 15.1529 26.0831 15.2183 26.2271C15.2533 26.3044 15.3066 26.32 15.3854 26.3195C16.5475 26.3171 17.7094 26.3171 18.8711 26.3195L18.9821 26.3163ZM17.1326 12.2958L17.1586 12.2986C17.1511 12.7133 17.1909 13.1275 17.2773 13.533C17.3368 13.8313 17.4324 14.1212 17.5619 14.3961C17.8563 14.9969 18.271 15.4345 18.9728 15.5319C19.2667 15.5733 19.5663 15.5331 19.8392 15.4157C20.2865 15.228 20.5816 14.8758 20.7955 14.4488C21.0801 13.8791 21.185 13.2627 21.2184 12.6353C21.246 12.1351 21.2105 11.6335 21.1127 11.1424C21.0334 10.7464 20.9142 10.3653 20.7061 10.0196C20.4084 9.51819 19.999 9.16521 19.3952 9.09568C18.7589 9.02288 18.2491 9.25315 17.8502 9.7501C17.5152 10.1697 17.3436 10.6642 17.2497 11.1816C17.185 11.5485 17.1704 11.9244 17.1326 12.2958ZM5.12722 20.5545C5.12722 21.3791 5.12722 22.2033 5.12478 23.0278C5.12478 23.1096 5.14958 23.1558 5.22154 23.1767C5.43134 23.2372 5.6383 23.3178 5.85216 23.3489C6.47424 23.4393 7.00972 23.2511 7.44274 22.7877C7.85624 22.3444 8.05262 21.7942 8.09775 21.209C8.15224 20.5067 8.1624 19.7966 7.95016 19.1091C7.83754 18.7447 7.65091 18.4318 7.32523 18.2154C7.01297 18.008 6.65843 17.9291 6.29778 17.9009C5.95218 17.8727 5.60211 17.8645 5.25732 17.9344C5.17601 17.9508 5.12396 17.9753 5.12437 18.0812C5.12966 18.9058 5.12722 19.73 5.12722 20.5545ZM24.8333 9.86462V10.263C24.8333 10.9481 24.8333 11.6332 24.8309 12.3179C24.8309 12.4254 24.8716 12.4815 24.9663 12.5109C25.109 12.5551 25.2509 12.6079 25.3948 12.6394C25.7243 12.7142 26.0675 12.7001 26.3898 12.5985C26.8199 12.4635 27.1338 12.187 27.3774 11.8172C27.7002 11.3264 27.808 10.771 27.8417 10.1992C27.8644 9.74776 27.8286 9.29528 27.7352 8.85314C27.689 8.61499 27.6099 8.38453 27.5002 8.16845C27.1834 7.55494 26.6439 7.29317 25.9933 7.22773C25.6568 7.18606 25.3158 7.19585 24.9822 7.25677C24.846 7.28458 24.8333 7.28867 24.8333 7.43305V9.86462ZM24.8484 13.014C24.8408 13.0488 24.836 13.084 24.8338 13.1195C24.8338 13.702 24.8338 14.2844 24.8338 14.8672C24.8341 14.9316 24.8479 14.9952 24.8744 15.0537C24.9557 15.2218 25.046 15.3838 25.1253 15.5519C25.1364 15.5815 25.1571 15.6064 25.184 15.6227C25.2109 15.6389 25.2425 15.6456 25.2737 15.6415C25.7274 15.6382 26.1812 15.6415 26.6349 15.6394C26.6671 15.6394 26.6992 15.6362 26.7358 15.6337C26.7358 15.6033 26.7321 15.5729 26.7248 15.5433C26.5662 15.1535 26.4203 14.758 26.2426 14.3772C25.9527 13.7555 25.5461 13.2402 24.8484 13.0152V13.014Z" fill="#FDF5EC"/>
</svg>
