<svg width="150" height="150" viewBox="0 0 150 150" fill="none" xmlns="http://www.w3.org/2000/svg">
<g clip-path="url(#clip0_1935_13269)">
<path d="M75 150C116.421 150 150 116.421 150 75C150 33.5786 116.421 0 75 0C33.5786 0 0 33.5786 0 75C0 116.421 33.5786 150 75 150Z" fill="#303145"/>
<path d="M49.2085 85.02C49.1027 84.791 48.986 84.645 48.9717 84.4898C48.8139 82.8253 48.6766 81.1578 48.5109 79.4948C48.473 79.1105 48.6088 79.0368 48.9608 79.0383C55.5236 79.0468 62.0861 79.0468 68.648 79.0383H80.1685C80.8487 79.0383 80.9149 79.1121 80.7477 79.7599C80.4478 80.9178 80.1449 82.0754 79.8276 83.2269C79.6824 83.7556 79.8639 84.2293 80.0139 84.711C80.5031 86.2619 80.9964 87.8118 81.4941 89.3608C81.835 90.4165 82.1979 91.466 82.5357 92.5233C82.9271 93.7454 83.2963 94.9753 83.6862 96.199C84.2638 98.0062 84.854 99.8071 85.4301 101.617C85.8309 102.872 86.2191 104.137 86.6152 105.393C86.8741 106.2 87.1549 106.998 87.4626 107.913C87.6458 107.329 87.8067 106.835 87.9582 106.336C88.4663 104.655 88.9729 102.972 89.478 101.29C89.8662 99.9813 90.2354 98.665 90.6284 97.3567C91.3781 94.8639 92.1419 92.376 92.8914 89.8832C93.2782 88.5921 93.6411 87.2947 94.0277 86.0037C94.2076 85.4013 94.4728 84.8176 94.5864 84.2059C94.641 83.8139 94.5931 83.4147 94.4476 83.0466C94.0387 81.9484 93.5764 80.8707 93.1251 79.7898C92.8993 79.2455 93.0241 79.0383 93.5985 79.0383C95.8078 79.0383 98.0173 79.0383 100.227 79.0383C100.345 79.0292 100.464 79.0361 100.58 79.0588C100.844 79.1341 100.878 79.3584 100.665 79.6125C100.026 80.3733 99.3824 81.1295 98.7432 81.8904C98.3598 82.3453 97.9194 82.7688 97.6148 83.2725C97.3383 83.768 97.122 84.2947 96.971 84.8412C96.4975 86.3409 96.0588 87.8485 95.6154 89.3576C95.3298 90.3318 95.0709 91.3171 94.782 92.2912C94.4491 93.4144 94.0877 94.5282 93.7515 95.6498C93.3728 96.9049 93.0146 98.174 92.639 99.4353C92.2949 100.592 91.9335 101.743 91.591 102.901C91.3071 103.862 91.0497 104.832 90.7657 105.792C90.4328 106.917 90.0792 108.035 89.7447 109.158C89.3232 110.57 88.9114 111.982 88.4979 113.394C88.4972 113.447 88.5036 113.5 88.5168 113.551H88.9383C93.1739 113.551 97.4087 113.551 101.642 113.551C101.928 113.551 102.116 113.502 102.253 113.2C102.55 112.547 102.917 111.926 103.239 111.283C103.301 111.139 103.329 110.985 103.323 110.829C103.323 101.887 103.318 92.9454 103.309 84.0034C103.309 83.5595 103.097 83.1078 102.94 82.6747C102.562 81.6394 102.15 80.6149 101.768 79.5828C101.628 79.2078 101.789 79.0273 102.255 79.0258C104.858 79.0258 107.463 79.0258 110.066 79.0258H117.222C117.217 78.9026 117.2 78.7802 117.171 78.6603C116.769 77.5465 116.333 76.4452 115.969 75.3204C115.83 74.8937 115.582 74.8858 115.236 74.8858C87.9872 74.8858 60.7378 74.8858 33.4886 74.8858C30.9636 74.8858 28.4385 74.8858 25.9135 74.8858C25.2823 74.8858 25.1244 74.6473 25.3611 74.0513C25.8599 72.7817 26.348 71.5015 26.8257 70.2109C26.8542 70.0967 26.8626 69.9783 26.8509 69.8611C26.8509 60.9464 26.8457 52.0306 26.8352 43.1137C26.8352 42.6887 26.611 42.2556 26.4596 41.8384C26.0887 40.8061 25.6815 39.7864 25.317 38.7511C25.1387 38.249 25.317 38.0436 25.8567 38.0436C29.013 38.0436 32.1692 38.0106 35.3256 38.053C39.2061 38.1048 42.3483 39.686 44.7486 42.72C46.0616 44.3798 46.958 46.2465 47.6399 48.2436C48.8376 51.7671 49.0712 55.3878 48.8108 59.0571C48.6959 60.7353 48.3921 62.3956 47.905 64.0065C47.0433 66.8302 45.7681 69.4407 43.5998 71.5365C43.24 71.8848 42.8532 72.2048 42.4271 72.583H59.5785C59.4395 72.1123 59.3102 71.6417 59.1634 71.1835C58.9251 70.4384 58.6678 69.6995 58.428 68.9543C58.0381 67.7371 57.6563 66.5181 57.2681 65.3007C56.8356 63.9495 56.4016 62.5993 55.966 61.2502C55.6726 60.3403 55.3711 59.432 55.0808 58.5205C54.7904 57.6091 54.5189 56.7134 54.2301 55.8113C53.7487 54.3069 53.2564 52.804 52.7751 51.2996C52.3316 49.9128 51.9024 48.5213 51.4589 47.1361C51.1274 46.0959 50.7187 45.0764 50.4584 44.0206C50.0797 42.4815 48.956 41.4211 48.1227 40.1739C47.7913 39.6767 47.4172 39.2091 47.0874 38.7134C47.0391 38.6445 47.006 38.5664 46.99 38.4839C46.9739 38.4015 46.9754 38.3167 46.9944 38.2349C47.0416 38.1299 47.2736 38.0561 47.4236 38.0546C49.9487 38.0451 52.4737 38.0546 54.9986 38.0546C55.6173 38.0546 55.5826 38.4043 55.4721 38.897C55.2906 39.6609 55.0776 40.4155 54.8724 41.1716C54.7461 41.6423 54.6073 42.1129 54.4794 42.5835C54.4418 42.6792 54.4304 42.7832 54.4463 42.8847C54.7825 43.9202 55.1408 44.9476 55.4737 45.9845C55.8556 47.1675 56.2139 48.3566 56.591 49.541C57.0802 51.0783 57.5837 52.611 58.0714 54.1469C58.4154 55.2262 58.7342 56.3133 59.0798 57.3926C59.711 59.3645 60.355 61.3334 60.9893 63.3052C61.3365 64.3814 61.6711 65.4623 62.0167 66.5384C62.0724 66.6645 62.1383 66.7857 62.2139 66.9009C62.408 66.2733 62.5895 65.7242 62.7536 65.1658C63.0394 64.2026 63.3076 63.2347 63.5948 62.2714C63.9247 61.1639 64.264 60.058 64.6001 58.9503C65.0041 57.6217 65.4144 56.2944 65.8105 54.9626C66.0962 53.9994 66.3566 53.0299 66.6453 52.0667C67.0304 50.785 67.4345 49.5081 67.8259 48.2264C68.2536 46.8051 68.6685 45.379 69.0884 43.9546C69.1273 43.7905 69.1802 43.63 69.2461 43.4746C69.6486 42.6777 69.1058 42.0486 68.8643 41.3772C68.528 40.4469 68.1288 39.5402 67.7596 38.6192C67.6427 38.3228 67.7849 38.1079 68.1114 38.0639C68.2029 38.0584 68.2946 38.0584 68.386 38.0639H74.8564C74.9877 38.0555 75.1194 38.0656 75.2479 38.0938C75.5382 38.1801 75.5745 38.4248 75.3458 38.7024C74.3467 39.9073 73.3257 41.0963 72.3567 42.3263C72.0884 42.6682 71.9448 43.1185 71.7949 43.5389C71.6054 44.0723 71.4619 44.6244 71.3103 45.1704C71.2855 45.326 71.2735 45.4834 71.2741 45.641C71.6592 45.3743 71.9731 45.161 72.2841 44.943L82.7914 37.5603C83.6388 36.9517 84.48 36.3649 85.3164 35.7611C85.4048 35.6835 85.5187 35.6406 85.6368 35.6406C85.7547 35.6406 85.8686 35.6835 85.9571 35.7611C88.4959 37.5547 91.0371 39.3456 93.5811 41.134L101.074 46.4097C101.682 46.8364 102.289 47.2662 102.9 47.6914C103.01 47.7684 103.137 47.8232 103.334 47.9314V47.4326C103.334 46.1776 103.302 44.9225 103.347 43.6676C103.372 42.9679 103.189 42.3435 102.941 41.7113C102.541 40.6843 102.151 39.6531 101.772 38.6178C101.656 38.3039 101.817 38.0859 102.157 38.0482C102.249 38.0427 102.341 38.0427 102.433 38.0482C105.537 38.0482 108.641 38.0231 111.744 38.0482C113.968 38.0718 116.131 38.417 118.118 39.5041C120.066 40.5542 121.617 42.2062 122.537 44.2104C123.041 45.3132 123.412 46.4718 123.642 47.6616C123.974 49.2606 124.055 50.901 123.883 52.5247C123.525 55.9854 122.24 59.0492 119.519 61.3679C118.143 62.5436 116.459 63.3064 114.664 63.5672C114.2 63.6379 113.732 63.6896 113.208 63.7555C113.661 64.0441 114.076 64.3218 114.506 64.5759C115.816 65.3604 116.745 66.4946 117.504 67.7809C118.642 69.723 119.437 71.8174 120.222 73.918C120.967 75.9086 121.691 77.9103 122.535 79.8588C123.209 81.4698 124.159 82.9526 125.341 84.242C125.602 84.5195 125.916 84.7454 126.244 85.0263C126.006 85.1108 125.763 85.1775 125.515 85.2256C123.575 85.4374 121.838 84.9651 120.43 83.5878C119.823 82.9931 119.325 82.2903 118.778 81.6299C118.705 81.5179 118.605 81.4258 118.487 81.3623C118.369 81.2987 118.237 81.2656 118.102 81.266C114.761 81.2785 111.422 81.2737 108.081 81.2737C107.608 81.2737 107.549 81.3303 107.549 81.7852C107.549 86.5312 107.549 91.2767 107.549 96.0217C107.549 96.3715 107.66 96.4625 108.002 96.461C110.357 96.4468 112.71 96.4358 115.064 96.461C116.931 96.4782 118.107 95.4851 118.94 93.951C119.122 93.6168 119.276 93.2685 119.471 92.8716C120.25 93.8129 120.714 94.8137 120.509 95.995C120.398 96.6226 119.86 96.9599 119.329 97.2422C119.068 97.3802 118.786 97.4806 118.48 97.6139C118.787 97.7379 119.078 97.8367 119.351 97.9686C120.354 98.4565 120.63 98.9585 120.525 100.061C120.444 100.907 120.04 101.6 119.478 102.297C119.283 101.892 119.126 101.53 118.939 101.185C118.339 100.086 117.531 99.2032 116.267 98.8659C115.909 98.7832 115.541 98.7458 115.173 98.7545C112.806 98.745 110.439 98.7545 108.072 98.7545C107.578 98.7545 107.556 98.7749 107.556 99.2596V113.065C107.556 113.554 107.565 113.564 108.072 113.564C112.187 113.564 116.304 113.564 120.421 113.564C120.529 113.573 120.639 113.555 120.739 113.511C120.839 113.467 120.926 113.399 120.992 113.313C122.288 111.732 123.596 110.164 124.915 108.606C125.041 108.498 125.182 108.409 125.335 108.344C125.378 108.501 125.493 108.683 125.455 108.832C125.187 110.188 124.898 111.538 124.611 112.89C124.439 113.692 124.244 114.489 124.087 115.295C123.979 115.84 124.001 115.845 123.444 115.845H26.3381C26.1013 115.845 25.8646 115.845 25.6279 115.845C25.3911 115.845 25.2349 115.711 25.2902 115.479C25.3922 115.053 25.5198 114.634 25.672 114.224C26.0492 113.2 26.4501 112.185 26.832 111.163C26.8588 111.049 26.8658 110.93 26.8525 110.813C26.8525 101.911 26.8472 93.0087 26.8368 84.1055C26.8368 83.6755 26.6363 83.2364 26.4832 82.8174C26.1076 81.7883 25.6941 80.7782 25.3185 79.7427C25.1402 79.2532 25.2949 79.054 25.792 79.054C29.4091 79.054 33.0278 78.9881 36.6401 79.1011C39.5203 79.192 42.1637 80.058 44.2562 82.1775C45.2954 83.2584 46.0721 84.5613 46.5272 85.9864C46.99 87.3196 47.2557 88.7126 47.3162 90.1217C47.3448 90.9153 47.4741 91.7123 47.4141 92.4998C47.3304 93.5059 47.1881 94.5064 46.988 95.4961C46.6669 97.1494 45.9968 98.7159 45.0217 100.093C43.8111 101.883 42.0771 103.261 40.0537 104.041C38.2877 104.73 36.4681 104.758 34.6469 104.593C33.3801 104.47 32.1587 104.059 31.0772 103.392C31.0677 103.585 31.0567 103.721 31.0567 103.862C31.0567 106.007 31.0693 108.151 31.0457 110.294C31.0298 110.793 31.1452 111.287 31.3802 111.728C31.65 112.225 31.9072 112.732 32.1692 113.239C32.2121 113.345 32.2885 113.435 32.3869 113.494C32.4854 113.553 32.6007 113.58 32.7153 113.568C38.8701 113.56 45.0248 113.56 51.1796 113.568C51.5078 113.568 51.653 113.422 51.7683 113.179C52.0649 112.586 52.3806 112.001 52.6583 111.399C52.7679 111.165 52.8275 110.912 52.8334 110.655C52.8429 105.098 52.8334 99.5436 52.8572 93.9871C52.8557 93.0906 52.6772 92.2031 52.3316 91.375C51.9434 90.3992 51.5783 89.4152 51.2364 88.4227C51.2001 88.3191 51.3768 88.123 51.4858 87.9991C51.5283 87.952 51.6625 87.9819 51.754 87.9819H57.6325C58.1312 87.9819 58.2639 88.1622 58.0934 88.6392C57.6342 89.8941 57.1559 91.1491 56.6953 92.4042C56.6194 92.597 56.5778 92.8012 56.5721 93.0081C56.5721 98.9302 56.5548 104.852 56.5895 110.774C56.5895 111.231 56.9051 111.692 57.1023 112.139C57.2681 112.517 57.481 112.876 57.6625 113.248C57.697 113.346 57.7631 113.43 57.8504 113.487C57.9377 113.543 58.0415 113.57 58.1455 113.562C59.8815 113.553 61.6175 113.553 63.3533 113.562C63.4554 113.565 63.5559 113.537 63.6409 113.481C63.7258 113.425 63.7909 113.343 63.8268 113.248C64.163 112.589 64.4991 111.929 64.8195 111.262C64.8867 111.108 64.9202 110.942 64.9173 110.774C64.9173 101.101 64.9211 91.4274 64.9283 81.7523C64.9283 81.3741 64.8132 81.2628 64.4329 81.2644C60.4874 81.277 56.5421 81.277 52.5967 81.2644C52.4559 81.2544 52.3151 81.2824 52.1887 81.3449C52.0625 81.4076 51.9554 81.5028 51.8786 81.6205C51.1274 82.6214 50.3543 83.605 49.5872 84.5934C49.5005 84.7141 49.3931 84.8129 49.2085 85.02ZM92.1924 72.5907C92.2665 72.6032 92.3413 72.6115 92.4165 72.6158C95.5458 72.6158 98.6754 72.6158 101.805 72.6064C101.887 72.5919 101.965 72.5601 102.033 72.5133C102.102 72.4665 102.159 72.4058 102.203 72.3351C102.427 71.9792 102.626 71.6081 102.798 71.2243C103.033 70.691 103.351 70.2094 103.347 69.5599C103.317 64.8144 103.331 60.0704 103.331 55.3249C103.331 53.7954 103.331 52.266 103.321 50.7364C103.32 50.6454 103.301 50.5557 103.263 50.4727C103.226 50.3895 103.172 50.3149 103.105 50.2532C102.51 49.8468 101.887 49.483 101.276 49.1017L92.4385 43.6016C90.2586 42.2421 88.0818 40.8825 85.9081 39.523C85.8275 39.4595 85.7272 39.426 85.6245 39.4281C85.5217 39.43 85.4229 39.4674 85.3448 39.5339C84.824 39.8775 84.2811 40.1928 83.7508 40.5253C79.4794 43.2058 75.2073 45.8837 70.9347 48.5589C70.4614 48.8538 70.1094 49.1409 69.9579 49.7371C69.5791 51.2227 69.0962 52.6817 68.659 54.1532C68.3308 55.2606 68.0168 56.3729 67.6822 57.4805C67.3476 58.588 66.983 59.7128 66.6469 60.8329C66.4102 61.6172 66.2066 62.4236 65.9715 63.2143C65.5311 64.6983 65.0814 66.1793 64.6332 67.6618C64.286 68.8147 63.9309 69.9663 63.5886 71.1208C63.4464 71.5915 63.3281 72.0841 63.1909 72.5939H79.0164C79.0055 72.5452 79.0164 72.5108 78.9943 72.4998C78.8776 72.4009 78.7608 72.3021 78.6377 72.2127C76.1284 70.3944 74.6449 67.886 73.7455 64.9964C72.81 61.7864 72.7637 58.3849 73.6112 55.1509C73.9993 53.6715 74.6164 52.2611 75.4404 50.9702C77.6445 47.5084 80.7945 45.6086 84.8902 45.2708C86.3036 45.169 87.7239 45.3285 89.0786 45.7414C91.1069 46.3252 92.9298 47.4629 94.3402 49.0248C96.7531 51.6713 97.9052 54.848 98.1752 58.3465C98.2761 59.6375 98.1752 60.9536 98.0394 62.2463C97.9274 63.2259 97.7272 64.1935 97.4412 65.1376C96.7357 67.5722 95.4891 69.6995 93.5921 71.4127C93.1565 71.8205 92.6878 72.1812 92.1924 72.5907ZM31.0551 72.2911C31.6407 72.3978 32.1851 72.5405 32.7389 72.5892C34.1883 72.7364 35.6525 72.576 37.0347 72.1185C38.9789 71.4519 40.4529 70.1812 41.5497 68.4602C42.6986 66.6545 43.3252 64.6529 43.6961 62.579C43.9332 61.2302 44.084 59.8679 44.1474 58.5002C44.2705 55.9416 44.2089 53.3861 43.7575 50.8493C43.5272 49.4498 43.1621 48.0755 42.6671 46.7455C42.0674 45.1892 41.2467 43.7852 40.0473 42.6196C38.6271 41.2469 36.929 40.4454 34.9579 40.3386C33.8531 40.279 32.7358 40.3983 31.6264 40.4674C31.0536 40.5033 31.0551 40.5348 31.0551 41.1058V72.2911ZM84.8318 113.564C84.8402 113.512 84.8428 113.459 84.8397 113.407C84.0744 111.002 83.3137 108.597 82.5389 106.19C81.9438 104.344 81.3269 102.507 80.7256 100.662C79.8429 97.9491 78.9643 95.2347 78.09 92.5187C77.5304 90.7774 76.9744 89.035 76.422 87.2916C76.0384 86.0804 75.6628 84.8663 75.281 83.6535C75.0726 82.9947 74.8659 82.3343 74.6418 81.6801C74.614 81.5498 74.5377 81.4349 74.4284 81.3581C74.3189 81.2813 74.1844 81.2485 74.0516 81.266C72.6186 81.2974 71.1857 81.2785 69.7527 81.2785C69.1357 81.2785 69.1341 81.2785 69.1341 81.8809C69.1341 91.398 69.1341 100.915 69.1341 110.432C69.1194 110.836 69.2143 111.236 69.4087 111.59C69.7086 112.117 69.9689 112.669 70.223 113.222C70.3588 113.518 70.5655 113.578 70.8716 113.576C75.382 113.567 79.8918 113.567 84.401 113.576L84.8318 113.564ZM77.6529 59.7881L77.7539 59.7991C77.725 61.3895 77.8796 62.9782 78.2148 64.5336C78.4457 65.6776 78.8167 66.7892 79.3194 67.8437C80.4621 70.1482 82.0717 71.8267 84.7956 72.2001C85.9365 72.3588 87.0994 72.2048 88.1586 71.7545C89.8946 71.0345 91.0404 69.6838 91.8704 68.046C92.9751 65.8607 93.3823 63.4967 93.5116 61.0901C93.6189 59.1719 93.481 57.2479 93.1013 55.3641C92.7936 53.8456 92.3312 52.3836 91.5232 51.058C90.368 49.1347 88.7788 47.7808 86.4354 47.5141C83.9656 47.2349 81.9864 48.1181 80.4383 50.0241C79.1379 51.6337 78.472 53.5303 78.1074 55.5147C77.8565 56.9219 77.7997 58.3637 77.6529 59.7881ZM31.0551 91.4644C31.0551 94.627 31.0551 97.7882 31.0457 100.951C31.0457 101.264 31.1419 101.442 31.4213 101.522C32.2356 101.754 33.0388 102.063 33.869 102.182C36.2835 102.529 38.3618 101.807 40.0426 100.03C41.6476 98.3293 42.4099 96.2194 42.585 93.9744C42.7965 91.281 42.836 88.5575 42.0122 85.9205C41.575 84.5227 40.8507 83.3227 39.5865 82.4928C38.3745 81.6973 36.9983 81.3946 35.5986 81.2864C34.2572 81.1781 32.8984 81.1468 31.5602 81.415C31.2444 81.4778 31.0424 81.5718 31.0441 81.9782C31.0646 85.1408 31.0551 88.3019 31.0551 91.4644ZM107.543 50.4634V51.9914C107.543 54.619 107.543 57.2467 107.534 59.8728C107.534 60.2853 107.691 60.5004 108.059 60.6133C108.613 60.7827 109.164 60.9851 109.722 61.1059C111.001 61.3931 112.333 61.339 113.584 60.949C115.254 60.4313 116.472 59.3708 117.417 57.9526C118.67 56.0702 119.089 53.9397 119.22 51.7466C119.308 50.0152 119.169 48.2797 118.806 46.5839C118.627 45.6704 118.32 44.7865 117.894 43.9578C116.665 41.6047 114.57 40.6006 112.045 40.3496C110.739 40.1898 109.416 40.2274 108.121 40.461C107.592 40.5678 107.543 40.5833 107.543 41.1372V50.4634ZM107.601 62.5429C107.572 62.6761 107.553 62.8114 107.545 62.9476C107.545 65.1814 107.545 67.4154 107.545 69.6508C107.546 69.8977 107.6 70.1415 107.702 70.3662C108.018 71.0109 108.368 71.6322 108.676 72.277C108.719 72.3903 108.799 72.486 108.904 72.5484C109.009 72.6107 109.131 72.6361 109.252 72.6205C111.013 72.6081 112.774 72.6205 114.536 72.6127C114.66 72.6127 114.785 72.6002 114.927 72.5907C114.927 72.4739 114.913 72.3575 114.884 72.244C114.269 70.7489 113.702 69.232 113.013 67.7715C111.888 65.387 110.309 63.4104 107.601 62.5475V62.5429Z" fill="#FDF5EC"/>
</g>
<defs>
<clipPath id="clip0_1935_13269">
<rect width="150" height="150" fill="white"/>
</clipPath>
</defs>
</svg>
